# xmcd CD database file
#
# Track frame offsets:
#	150
#	16010
#	29150
#
# Disc length: 595 seconds
#
# Revision: 1
# Processed by: cddbd v1.5.2PL0 Copyright (c) Steve Scherf et al.
# Submitted via: CDex 1.79
#
DISCID=1b025103
DTITLE=Graham Parker - A Brand New Book (single)
DYEAR=1991
DGENRE=BritPop
TTITLE0=A Brand New Book
TTITLE1=Museum of Stupidity
TTITLE2=Guardian Angels
EXTD=YEAR: 1991
EXTT0=
EXTT1=
EXTT2=
PLAYORDER=
